<svg xmlns="http://www.w3.org/2000/svg" width="1920" height="1920" fill="none" viewBox="0 0 1920 1920"><rect width="1920" height="1920" fill="#7b68ee" rx="200"/><path fill="#fff" fill-rule="evenodd" d="M960 75c54.13 0 97.94 36.198 131.25 82.891 34.02 47.674 63.04 114.122 86.76 192.704 4.82 15.961 9.43 32.516 13.85 49.623 15.23-8.97 30.21-17.407 44.9-25.288 72.33-38.796 139.84-65.258 197.6-74.915 56.58-9.459 113.15-4.083 151.43 34.194s43.65 94.85 34.2 151.426c-9.66 57.762-36.12 125.271-74.92 197.605-7.88 14.694-16.32 29.667-25.29 44.892 17.11 4.423 33.66 9.042 49.63 13.86 78.58 23.715 145.03 52.74 192.7 86.756C1808.8 862.065 1845 905.868 1845 960c0 54.13-36.2 97.94-82.89 131.25-47.67 34.02-114.12 63.04-192.7 86.76-15.97 4.82-32.52 9.43-49.63 13.85 8.97 15.23 17.41 30.21 25.29 44.9 38.8 72.33 65.26 139.84 74.92 197.6 9.45 56.58 4.08 113.15-34.2 151.43s-94.85 43.65-151.43 34.2c-57.76-9.66-125.27-36.12-197.6-74.92-14.69-7.88-29.67-16.32-44.9-25.29-4.42 17.11-9.03 33.66-13.85 49.63-23.72 78.58-52.74 145.03-86.76 192.7-33.31 46.69-77.12 82.89-131.25 82.89-54.132 0-97.935-36.2-131.252-82.89-34.016-47.67-63.041-114.12-86.756-192.7-4.818-15.97-9.437-32.52-13.86-49.63-15.225 8.97-30.198 17.41-44.892 25.29-72.335 38.8-139.847 65.26-197.609 74.92-56.576 9.45-113.145 4.08-151.422-34.2s-43.653-94.85-34.194-151.42c9.657-57.76 36.119-125.28 74.915-197.61 7.881-14.69 16.318-29.67 25.288-44.9-17.107-4.42-33.662-9.03-49.623-13.85-78.582-23.72-145.03-52.74-192.704-86.76C111.198 1057.94 75 1014.13 75 960c0-54.132 36.198-97.935 82.891-131.252 47.674-34.016 114.122-63.041 192.704-86.756 15.961-4.817 32.516-9.438 49.623-13.86-8.97-15.225-17.407-30.199-25.288-44.892-38.796-72.335-65.258-139.847-74.915-197.609-9.459-56.575-4.082-113.145 34.194-151.422s94.847-43.653 151.422-34.194c57.762 9.657 125.274 36.119 197.609 74.915 14.693 7.881 29.667 16.318 44.892 25.288 4.422-17.107 9.043-33.662 13.86-49.623 23.715-78.582 52.74-145.03 86.756-192.704C862.065 111.198 905.868 75 960 75m0 1281.41c-55.315 44.87-109.73 84.97-162.012 119.6 5.944 24.83 12.298 48.46 19.026 70.75 22.477 74.48 48.461 131.9 75.523 169.83 27.761 38.91 51.108 50.05 67.463 50.05s39.702-11.14 67.46-50.05c27.06-37.93 53.05-95.35 75.53-169.83 6.72-22.29 13.07-45.92 19.02-70.75-52.28-34.63-106.7-74.73-162.01-119.6m-479.433-146.09c-13.357 21.76-25.569 42.96-36.575 63.48-36.772 68.56-59.002 127.53-66.685 173.49-7.881 47.14.752 71.52 12.316 83.09 11.565 11.56 35.947 20.19 83.087 12.31 45.956-7.68 104.932-29.91 173.491-66.68 20.522-11.01 41.717-23.22 63.479-36.58-12.48-61.46-22.602-128.29-29.985-199.13-70.842-7.38-137.673-17.5-199.128-29.98m958.863 0c-61.46 12.48-128.29 22.6-199.13 29.98-7.38 70.84-17.5 137.67-29.98 199.13 21.76 13.36 42.95 25.57 63.47 36.58 68.56 36.77 127.54 59 173.5 66.68 47.14 7.88 71.52-.75 83.09-12.31 11.56-11.57 20.19-35.95 12.31-83.09-7.68-45.96-29.91-104.94-66.68-173.5-11.01-20.52-23.22-41.71-36.58-63.47m-680.169 36.99c5.688 51.31 12.848 100.14 21.288 145.91 38.338-26.4 77.93-55.86 118.234-88.12a2698 2698 0 0 1-59.691-53.21 2711 2711 0 0 1-79.831-4.58m401.469 0c-26.18 1.89-52.81 3.43-79.83 4.58a2680 2680 0 0 1-59.69 53.21c40.31 32.26 79.9 61.72 118.24 88.12 8.44-45.77 15.6-94.6 21.28-145.91M960 743.922c-30.061 0-59.726.482-88.916 1.416a2781 2781 0 0 0-63.874 61.872 2781 2781 0 0 0-61.872 63.874A2781 2781 0 0 0 743.922 960c0 30.06.482 59.72 1.416 88.91a2789 2789 0 0 0 125.746 125.75c29.19.93 58.855 1.42 88.916 1.42 30.06 0 59.72-.49 88.91-1.42a2783 2783 0 0 0 125.75-125.75c.93-29.19 1.42-58.85 1.42-88.91 0-30.061-.49-59.726-1.42-88.916a2789.417 2789.417 0 0 0-125.75-125.746c-29.19-.934-58.85-1.416-88.91-1.416M614.898 1021.21c-32.26 40.31-61.723 79.9-88.125 118.24 45.777 8.44 94.606 15.6 145.915 21.28a2698 2698 0 0 1-4.579-79.83 2675 2675 0 0 1-53.211-59.69m690.202 0a2680 2680 0 0 1-53.21 59.69c-1.15 27.02-2.69 53.65-4.58 79.83 51.31-5.68 100.14-12.84 145.91-21.28-26.4-38.34-55.86-77.93-88.12-118.24M443.987 797.988c-24.832 5.943-48.456 12.298-70.749 19.026-74.48 22.477-131.902 48.461-169.83 75.523-38.907 27.761-50.044 51.108-50.044 67.463s11.137 39.702 50.044 67.46c37.928 27.06 95.35 53.05 169.83 75.53 22.293 6.72 45.917 13.07 70.749 19.02 34.63-52.28 74.731-106.7 119.603-162.01-44.872-55.315-84.972-109.73-119.603-162.012m1032.023 0c-34.63 52.282-74.73 106.697-119.6 162.012 44.87 55.31 84.97 109.73 119.6 162.01 24.83-5.95 48.46-12.3 70.75-19.02 74.48-22.48 131.9-48.47 169.83-75.53 38.91-27.758 50.05-51.105 50.05-67.46s-11.14-39.702-50.05-67.463c-37.93-27.062-95.35-53.046-169.83-75.523-22.29-6.728-45.92-13.082-70.75-19.026m-803.322-38.727c-51.309 5.688-100.138 12.848-145.915 21.288 26.402 38.338 55.865 77.93 88.125 118.234a2693 2693 0 0 1 53.211-59.691 2701 2701 0 0 1 4.579-79.831m574.622 0c1.89 26.187 3.43 52.817 4.58 79.831a2698 2698 0 0 1 53.21 59.691c32.26-40.304 61.72-79.896 88.12-118.234-45.77-8.44-94.6-15.6-145.91-21.288m-774.6-381.954c-47.14-7.881-71.522.752-83.087 12.316s-20.197 35.947-12.316 83.087c7.683 45.956 29.913 104.932 66.685 173.491 11.006 20.521 23.218 41.718 36.575 63.479 61.455-12.481 128.286-22.602 199.128-29.985 7.383-70.842 17.504-137.673 29.985-199.128-21.761-13.357-42.958-25.569-63.479-36.575-68.559-36.772-127.535-59.002-173.491-66.685m1057.67 12.316c-11.57-11.564-35.95-20.197-83.09-12.316-45.96 7.683-104.94 29.913-173.5 66.685-20.52 11.006-41.71 23.218-63.47 36.575 12.48 61.455 22.6 128.286 29.98 199.128 70.84 7.383 137.67 17.505 199.13 29.985 13.36-21.761 25.57-42.954 36.58-63.474 36.77-68.56 59-127.54 66.68-173.496 7.88-47.14-.75-71.522-12.31-83.087m-749.831 137.15c-8.44 45.777-15.6 94.606-21.288 145.915a2701 2701 0 0 1 79.831-4.579 2693 2693 0 0 1 59.691-53.211c-40.304-32.26-79.896-61.723-118.234-88.125m358.901 0c-38.34 26.402-77.93 55.865-118.24 88.125a2675 2675 0 0 1 59.69 53.211 2698 2698 0 0 1 79.83 4.579c-5.68-51.309-12.84-100.138-21.28-145.915M960 153.364c-16.355 0-39.702 11.137-67.463 50.044-27.062 37.928-53.046 95.35-75.523 169.83-6.728 22.293-13.083 45.917-19.026 70.749C850.27 478.618 904.685 518.718 960 563.59c55.31-44.872 109.73-84.973 162.01-119.603-5.95-24.832-12.3-48.456-19.02-70.749-22.48-74.48-48.47-131.902-75.53-169.83-27.758-38.907-51.105-50.044-67.46-50.044" clip-rule="evenodd"/><path fill="#fff" d="M1120.89 893.358v133.282l-94.25 94.25H893.358l-94.243-94.25V893.358l94.243-94.243h133.282zM960 876.003c-24.044 0-43.535 19.492-43.535 43.536 0 17.125 9.894 31.928 24.271 39.037l-21.44 79.934c-.742 2.77 1.342 5.49 4.205 5.49h72.998c2.863 0 4.951-2.72 4.201-5.49l-21.441-79.934c14.38-7.108 24.281-21.911 24.281-39.037 0-24.044-19.496-43.536-43.54-43.536"/></svg>